<svg height="24" viewBox="0 0 59 56" fill="none" xmlns="http://www.w3.org/2000/svg">
<path d="M3 0.5H0.5V5.5H3V0.5ZM3 50.5H0.5V55.5H3V50.5ZM3 12.4048H0.5V17.4048H3V12.4048ZM27.3129 17.4048C28.6936 17.4048 29.8129 16.2855 29.8129 14.9048C29.8129 13.5241 28.6936 12.4048 27.3129 12.4048V17.4048ZM3 24.9049H0.5V29.9049H3V24.9049ZM27.3129 29.9049C28.6936 29.9049 29.8129 28.7856 29.8129 27.4049C29.8129 26.0242 28.6936 24.9049 27.3129 24.9049V29.9049ZM3 37.4051H0.5V42.4051H3V37.4051ZM4.62086 42.4051C6.00157 42.4051 7.12086 41.2858 7.12086 39.9051C7.12086 38.5243 6.00157 37.4051 4.62086 37.4051V42.4051ZM53.9884 28C53.9884 40.5465 44.3472 50.5 32.7158 50.5V55.5C47.3428 55.5 58.9884 43.0677 58.9884 28H53.9884ZM32.7158 5.5C44.3472 5.5 53.9884 15.4535 53.9884 28H58.9884C58.9884 12.9323 47.3428 0.5 32.7158 0.5V5.5ZM32.7158 0.5H3V5.5H32.7158V0.5ZM32.7158 50.5H3V55.5H32.7158V50.5ZM3 17.4048H27.3129V12.4048H3V17.4048ZM3 29.9049H27.3129V24.9049H3V29.9049ZM3 42.4051H4.62086V37.4051H3V42.4051Z" fill="#4058D7"/>
</svg>
